<?xml version="1.0" standalone="no"?>
<!DOCTYPE svg PUBLIC "-//W3C//DTD SVG 20010904//EN"
 "http://www.w3.org/TR/2001/REC-SVG-20010904/DTD/svg10.dtd">
<svg version="1.0" xmlns="http://www.w3.org/2000/svg"
 width="1024.000000pt" height="1024.000000pt" viewBox="0 0 1024.000000 1024.000000"
 preserveAspectRatio="xMidYMid meet">

<g transform="translate(0.000000,1024.000000) scale(0.100000,-0.100000)"
fill="#000000" stroke="none">
<path d="M6259 7475 c-233 -25 -481 -94 -663 -183 l-99 -49 -45 34 c-176 134
-407 153 -588 47 -60 -35 -141 -125 -172 -191 -25 -53 -27 -68 -27 -181 l0
-122 -1205 0 c-1344 0 -1279 3 -1427 -70 -174 -86 -305 -252 -354 -450 -12
-45 -14 -277 -14 -1310 0 -1184 1 -1259 18 -1333 45 -190 180 -363 347 -446
154 -75 78 -72 1508 -69 l1277 3 80 27 c103 35 212 107 299 197 l69 72 71 -68
c39 -38 95 -86 124 -107 28 -21 52 -41 52 -45 0 -4 -21 -23 -47 -43 -98 -73
-134 -78 -158 -21 -26 62 -65 70 -116 25 -66 -59 -44 -172 41 -214 44 -22 151
-24 209 -3 55 19 124 66 187 127 l52 50 93 -35 c114 -42 307 -91 449 -112 58
-9 205 -19 327 -22 350 -9 584 19 851 102 l121 38 52 -46 c98 -86 248 -146
328 -132 82 14 130 36 170 80 45 49 66 110 57 169 -9 54 -58 143 -107 193
l-40 42 66 93 c105 146 174 295 219 475 51 201 51 211 51 1123 0 873 -4 999
-41 1173 -8 38 -14 70 -14 72 0 2 24 16 53 33 69 39 148 111 186 170 113 177
98 409 -36 553 -107 116 -226 165 -380 157 -102 -6 -161 -25 -251 -79 -35 -21
-65 -39 -67 -39 -2 0 -27 16 -57 36 -148 99 -434 206 -659 248 -250 46 -545
58 -790 31z m561 -186 c239 -21 475 -81 646 -163 136 -65 214 -117 305 -203
182 -172 292 -405 335 -710 19 -134 37 -1566 24 -1844 -24 -475 -180 -782
-500 -981 -268 -167 -714 -250 -1178 -220 -711 46 -1114 302 -1266 802 -41
136 -56 257 -67 540 -13 325 -6 1551 9 1595 6 17 11 23 11 14 1 -10 22 -59 48
-110 147 -294 494 -437 805 -332 l83 28 0 -70 c0 -93 31 -157 99 -202 l48 -33
4 -92 c6 -130 20 -174 69 -223 53 -54 110 -70 245 -70 130 0 191 16 240 65 45
45 61 98 68 226 l5 101 39 18 c74 32 125 132 115 228 -4 41 -2 47 12 41 86
-36 143 -47 251 -48 132 -1 205 15 315 69 285 141 436 463 363 775 -5 25 -30
87 -54 138 -77 159 -214 281 -394 348 -68 25 -87 28 -215 28 -129 1 -147 -1
-223 -28 -198 -67 -360 -228 -428 -426 -63 -179 -47 -391 40 -546 14 -24 24
-44 22 -44 -1 0 -21 9 -44 20 -79 38 -156 37 -254 -5 -15 -6 -14 1 7 48 76
164 86 375 27 535 -103 279 -348 452 -637 452 -157 0 -281 -38 -419 -127 l-69
-44 31 38 c41 53 138 143 192 180 178 121 464 209 765 236 93 8 419 6 525 -4z
m-1582 -99 c24 -11 56 -28 71 -39 l28 -21 -70 -74 -70 -74 -27 28 c-53 57
-135 48 -174 -19 -18 -31 -18 -37 -5 -75 8 -23 26 -49 44 -61 l30 -20 -22 -55
c-12 -30 -23 -63 -23 -72 0 -30 -17 -29 -61 5 -55 42 -96 107 -111 179 -45
217 181 389 390 298z m2963 -105 c180 -63 244 -253 140 -417 -25 -39 -112
-117 -132 -118 -3 0 -17 30 -33 68 -15 37 -29 72 -32 79 -3 7 9 18 29 26 94
40 89 165 -8 197 -39 13 -94 1 -115 -25 -10 -13 -17 -9 -40 23 -15 20 -44 53
-64 71 -20 19 -36 38 -36 43 0 4 15 15 33 24 85 45 181 55 258 29z m-2276
-230 c220 -58 384 -260 401 -494 20 -258 -166 -504 -427 -566 -113 -26 -232
-12 -346 41 -78 37 -210 168 -246 246 -103 220 -64 463 102 629 68 68 156 121
241 145 63 17 205 17 275 -1z m1467 4 c145 -30 302 -148 367 -276 112 -223 68
-479 -110 -647 -173 -164 -396 -199 -606 -96 -361 177 -409 675 -89 917 131
99 282 134 438 102z m-2551 -295 c18 -19 62 -54 96 -76 60 -39 61 -40 52 -71
-26 -90 -50 -324 -60 -587 -13 -331 -6 -1449 10 -1580 24 -194 72 -371 142
-519 21 -46 39 -91 39 -101 0 -30 -134 -164 -197 -197 -139 -73 -26 -68 -1413
-68 -1178 0 -1248 1 -1305 18 -113 35 -195 95 -256 190 -79 122 -74 22 -74
1407 0 1315 -1 1287 48 1385 48 97 133 171 242 212 l60 22 1291 0 1290 1 35
-36z m2014 -861 c35 -72 12 -143 -53 -170 -31 -13 -49 -12 -152 3 -112 16
-123 16 -232 -1 -107 -17 -116 -17 -146 -1 -37 19 -72 70 -72 104 0 49 68 143
104 142 6 0 28 -14 50 -30 90 -69 225 -79 324 -25 28 15 59 36 68 46 15 17 18
17 54 -7 21 -14 46 -42 55 -61z m-349 -425 l-1 -133 -45 3 c-85 7 -98 24 -107
151 l-6 90 39 6 c21 3 46 8 54 10 8 1 27 3 41 4 l26 1 -1 -132z m192 111 c19
-8 22 -15 22 -66 -1 -128 -29 -173 -106 -173 l-44 0 0 130 0 129 53 -6 c28 -3
62 -10 75 -14z m1194 -2116 c20 -21 41 -48 47 -60 29 -56 -1 -103 -67 -103
-36 0 -121 37 -162 70 -24 20 -24 22 -7 33 10 7 44 31 75 54 31 23 62 42 67
42 6 1 27 -16 47 -36z"/>
<path d="M5525 6513 c-81 -42 -121 -115 -113 -208 16 -188 255 -252 363 -97
27 39 30 52 30 117 0 65 -3 78 -30 117 -42 59 -96 88 -165 87 -30 0 -68 -7
-85 -16z"/>
<path d="M7005 6514 c-73 -38 -115 -106 -115 -189 0 -164 173 -260 303 -169
125 89 111 289 -25 360 -36 19 -126 18 -163 -2z"/>
<path d="M4405 6006 c-16 -7 -59 -44 -95 -82 -35 -38 -105 -112 -155 -164 -79
-84 -295 -317 -666 -719 -63 -69 -138 -150 -165 -179 l-49 -53 -229 251 c-126
138 -251 271 -277 295 -46 43 -51 45 -106 45 l-58 0 -131 -134 c-72 -73 -136
-147 -143 -165 -21 -49 -6 -95 51 -159 28 -31 130 -140 227 -242 97 -102 264
-279 371 -393 109 -115 210 -214 229 -223 40 -19 94 -13 131 14 60 45 1428
1506 1441 1539 21 57 5 85 -129 224 -115 119 -167 160 -204 159 -7 -1 -26 -7
-43 -14z"/>
</g>
</svg>
